<?xml version="1.0" standalone="no"?>
<!DOCTYPE svg PUBLIC "-//W3C//DTD SVG 20010904//EN"
 "http://www.w3.org/TR/2001/REC-SVG-20010904/DTD/svg10.dtd">
<svg version="1.0" xmlns="http://www.w3.org/2000/svg"
 width="900.000000pt" height="900.000000pt" viewBox="0 0 900.000000 900.000000"
 preserveAspectRatio="xMidYMid meet">
<metadata>
Created by potrace 1.11, written by Peter Selinger 2001-2013
</metadata>
<g transform="translate(0.000000,900.000000) scale(0.100000,-0.100000)"
fill="#000000" stroke="none">
<path d="M4470 8426 c-3 -3 -21 -8 -40 -11 -19 -3 -51 -10 -70 -15 -37 -10
-275 -69 -300 -75 -8 -2 -136 -33 -285 -70 -148 -37 -277 -68 -285 -70 -8 -2
-15 -4 -15 -5 0 -1 -9 -3 -20 -4 -23 -4 -341 -80 -395 -96 -41 -11 -181 -46
-365 -89 -158 -38 -167 -41 -161 -57 3 -9 -1 -14 -14 -14 -11 0 -18 -5 -15
-12 2 -7 6 -38 10 -68 3 -30 8 -71 10 -90 2 -19 6 -53 9 -75 3 -22 5 -40 6
-40 0 0 3 -22 5 -50 2 -27 6 -66 9 -85 2 -19 7 -62 11 -95 4 -33 8 -71 11 -85
2 -14 6 -50 9 -80 3 -30 8 -68 10 -85 2 -16 7 -59 10 -95 3 -36 8 -76 10 -90
3 -14 8 -56 11 -95 3 -38 8 -73 10 -76 2 -3 6 -35 9 -70 3 -35 8 -77 10 -94 7
-46 15 -115 20 -169 2 -27 6 -61 9 -75 3 -14 8 -53 11 -86 3 -33 8 -78 10
-100 3 -22 7 -56 9 -75 6 -47 16 -128 21 -167 3 -18 7 -62 11 -98 3 -37 7 -76
10 -88 2 -12 6 -47 9 -77 3 -30 7 -68 10 -85 3 -16 7 -53 10 -80 l6 -51 -183
-79 c-101 -43 -205 -89 -233 -101 -27 -12 -178 -77 -335 -144 -157 -67 -310
-133 -340 -147 -88 -39 -102 -46 -355 -153 -253 -108 -306 -131 -369 -161 -22
-11 -43 -19 -47 -19 -4 0 -38 -14 -76 -31 -37 -16 -122 -54 -188 -82 -66 -29
-120 -57 -121 -62 0 -6 -4 -17 -8 -26 -4 -10 12 -83 39 -175 26 -88 62 -213
81 -279 65 -226 72 -250 94 -320 19 -61 43 -146 55 -195 3 -8 34 -116 70 -240
36 -124 86 -295 111 -380 25 -85 48 -162 51 -170 3 -8 6 -18 5 -22 -1 -4 3
-20 10 -35 6 -15 12 -32 13 -38 10 -68 33 -112 89 -170 71 -74 305 -319 390
-408 59 -63 349 -365 466 -487 109 -113 405 -422 451 -471 66 -70 75 -67 281
87 95 71 178 133 183 137 12 10 252 187 494 367 101 74 188 140 195 145 6 6
29 23 51 39 22 17 42 33 45 36 3 4 10 9 15 11 8 3 351 258 695 515 47 35 90
64 95 64 8 0 306 -216 370 -268 6 -4 28 -21 50 -37 22 -17 51 -40 65 -53 14
-12 27 -22 31 -22 4 0 55 -36 134 -98 6 -4 35 -25 65 -47 30 -22 57 -42 60
-45 6 -7 226 -170 256 -190 45 -30 179 -134 182 -142 2 -4 8 -8 13 -8 5 0 17
-7 26 -15 16 -12 325 -244 385 -287 12 -9 32 -24 43 -33 173 -133 286 -212
291 -204 3 6 13 8 21 5 16 -6 41 18 343 334 85 89 193 202 240 251 47 49 146
153 220 230 74 78 164 172 200 209 36 37 137 143 225 235 88 92 169 176 179
187 11 10 16 18 10 18 -5 0 -4 4 3 8 10 6 48 131 190 617 19 66 37 128 38 138
2 9 6 21 9 25 3 5 7 19 10 33 3 13 30 108 61 211 30 103 56 195 58 205 2 10 9
31 15 46 7 15 11 31 10 35 -1 4 4 20 11 36 6 16 9 31 6 34 -2 3 -1 10 4 16 5
6 25 67 44 136 19 69 47 166 62 215 15 50 28 97 30 105 2 8 10 34 19 57 12 35
13 43 1 53 -8 6 -12 17 -9 23 2 7 -16 20 -43 31 -27 11 -76 32 -111 48 -34 15
-64 28 -66 28 -2 0 -25 10 -52 22 -27 12 -51 23 -54 23 -3 1 -23 10 -45 20
-82 36 -482 208 -535 230 -50 21 -309 132 -405 175 -38 17 -148 64 -225 97
-19 8 -44 19 -55 24 -30 13 -277 119 -477 206 l-177 76 4 41 c7 63 27 237 39
339 3 26 8 68 11 95 3 26 8 61 10 77 2 17 7 61 11 100 3 38 7 72 9 76 2 3 7
41 10 85 3 43 8 86 11 96 3 9 7 43 9 75 2 32 6 69 9 82 3 13 8 51 11 85 3 33
8 75 10 91 2 17 7 57 11 90 10 101 11 108 19 165 4 30 9 66 10 80 11 110 16
162 20 181 3 12 7 47 10 76 3 30 7 75 10 101 3 26 8 65 10 87 3 22 7 51 10 65
3 14 7 54 10 90 3 36 7 76 10 90 3 14 7 51 10 84 3 32 8 62 11 67 3 5 -2 12
-10 15 -9 3 -16 12 -16 20 0 7 -17 18 -37 23 -65 17 -337 84 -353 86 -8 1 -22
5 -30 8 -14 5 -584 145 -620 152 -8 2 -91 22 -185 46 -93 23 -177 43 -185 44
-8 1 -22 5 -30 8 -8 4 -24 8 -35 10 -11 2 -33 7 -50 11 -103 26 -345 86 -370
92 -43 10 -129 16 -135 10z"/>
</g>
</svg>
