<?xml version="1.0" standalone="no"?>
<!DOCTYPE svg PUBLIC "-//W3C//DTD SVG 20010904//EN"
 "http://www.w3.org/TR/2001/REC-SVG-20010904/DTD/svg10.dtd">
<svg version="1.0" xmlns="http://www.w3.org/2000/svg"
 width="700.000000pt" height="700.000000pt" viewBox="0 0 700.000000 700.000000"
 preserveAspectRatio="xMidYMid meet">
<metadata>
Created by potrace 1.14, written by Peter Selinger 2001-2017
</metadata>
<g transform="translate(0.000000,700.000000) scale(0.100000,-0.100000)"
fill="#000000" stroke="none">
<path d="M0 3500 l0 -3500 875 0 875 0 0 440 0 440 435 0 435 0 0 870 0 870
-435 0 -435 0 0 440 0 440 440 0 440 0 0 -435 0 -435 435 0 435 0 0 1750 0
1750 1313 -2 1312 -3 3 -437 2 -438 435 0 435 0 0 875 0 875 -3500 0 -3500 0
0 -3500z"/>
<path d="M4380 4815 l0 -435 435 0 435 0 0 435 0 435 -435 0 -435 0 0 -435z"/>
</g>
</svg>
