<svg version="1" xmlns="http://www.w3.org/2000/svg" width="1066.667" height="1066.667" viewBox="0 0 800.000000 800.000000"><path d="M394.5 8c-1.6.4-7.7 1.9-13.5 3.3s-17.9 4.4-27 6.7c-9.1 2.2-17.6 4.3-19 4.6-1.4.3-7.7 1.9-14 3.5s-12.6 3.2-14 3.5c-1.4.3-3.3.7-4.2 1-1 .3-2.8.7-4 .9-1.3.3-7.7 1.8-14.3 3.5-6.6 1.7-13.1 3.3-14.5 3.6-1.4.3-4.3 1-6.5 1.6-2.2.5-4.8 1.2-5.7 1.3-3 .6-23.2 5.7-24.8 6.2-.8.3-2.6.7-3.9.9-1.3.2-3.1.6-4 1-.9.4-2.5.8-3.7.9-1.1.2-3.8.8-6 1.3-2.1.6-5.8 1.6-8.1 2.2-2.6.6-4.3 1.7-4.3 2.5s-.5 1.5-1.1 1.5c-.7 0-.9 2.6-.4 8.1.3 4.5.7 8.5.9 8.8.2.3.7 3.7 1 7.6.3 3.8.8 8 1 9.2.4 2 1.2 8.1 2.2 17.7.2 2.1.6 5.9.9 8.5.3 2.5.8 6.6 1 9.1.3 2.5.7 6.1 1 8 .2 1.9.7 5.7 1 8.5.3 2.7.8 6.6 1 8.5.3 1.9.7 6 1 9 .3 3 .7 6.8 1 8.5.2 1.6.7 5.5 1 8.5.3 3 1 8.6 1.5 12.5 1.3 9.4 1.9 14.8 2.6 22 .3 3.3.7 7.1 1 8.5.3 1.4.6 4.5.8 7 .3 2.5.7 6.3.9 8.5.3 2.2.8 6.7 1.2 10 .4 3.2.9 6.8 1.1 8 .2 1.1.7 4.9 1 8.5.2 3.6.7 7.6.9 8.9.2 1.4.7 5.4 1.1 9 .3 3.6.8 7.4 1 8.4.2 1.1.6 4.3.9 7.2l.7 5.2-3.9 1.6c-2.1.8-6 2.5-8.8 3.8-2.7 1.2-6.3 2.8-8 3.4-3.3 1.4-103.7 44.7-110 47.5-2.2 1-10.1 4.4-17.5 7.5-7.4 3.2-16.3 7.1-19.8 8.6-3.4 1.6-6.5 2.9-6.7 2.9-.2 0-2.8 1.1-5.7 2.4-2.9 1.3-14.1 6.1-24.9 10.7-10.9 4.6-19.5 8.7-19.3 9.1.3.4 0 1.5-.7 2.5-.9 1.5-.2 4.7 3 15.8 2.3 7.7 4.3 14.7 4.5 15.6.3.9 1.4 4.9 2.6 9 1.2 4.1 2.2 7.6 2.2 7.9 0 .3.5 1.6 1 3s1.2 3.3 1.4 4.2c1 4.3 1.4 5.8 4.2 15.3 1.7 5.5 5.1 17.2 7.6 26s5 17.3 5.5 19c.6 1.6 3.1 10.2 5.6 19 2.6 8.8 6.9 23.6 9.7 33 5.9 20.5 5.2 18 6.8 23.9 1 3.9 2.9 6.5 9.6 13.5 4.5 4.7 11 11.5 14.4 15.1 5.4 5.7 28.8 30.1 46.5 48.5 3.3 3.4 12.5 13.1 20.5 21.4 8 8.4 18.8 19.6 24 25 5.2 5.4 13.4 14 18.3 19.1 10 10.5 13.2 11.9 17.9 7.5 1.5-1.4 2.9-2.5 3.2-2.5.4 0 62.1-45.9 64.3-47.9.7-.6 1.5-1.1 1.8-1.1.2 0 1.5-.9 2.7-1.9 1.3-1.1 8.4-6.4 15.8-11.9s16-11.9 19-14.2c9.2-6.9 18.4-13.7 45-33.5 14-10.4 26-19.3 26.5-19.8.6-.4 3.9-2.9 7.4-5.4 5.7-4.2 6.5-4.5 8.5-3.3 2.1 1.3 7.6 5.3 44.1 32.6 11 8.2 21 15.6 22.1 16.4 1.2.8 6.9 5 12.5 9.3 11.9 8.9 11.7 8.8 26.4 19.7 6.1 4.5 12.3 9.1 13.9 10.3 1.5 1.2 7.8 5.9 14 10.4 6.1 4.5 11.6 8.6 12.1 9.1 3.2 2.6 17.7 13.3 21.7 16 2.5 1.8 5.2 3.8 6 4.5.7.7 4.7 3.7 8.8 6.6 4.1 3 8.7 6.5 10.1 7.9 1.9 1.6 2.9 2 3.4 1.2.4-.6 1.4-.9 2.3-.5 1.1.4 4.1-2.2 9.9-8.2 4.7-4.8 14.8-15.5 22.6-23.7 7.8-8.1 17.6-18.3 21.7-22.6 4.1-4.2 14.5-15 23-24 8.5-8.9 18.7-19.5 22.5-23.5 3.9-3.9 14.2-14.7 23-24s16.8-17.5 17.7-18.3c.9-.9 1.5-1.9 1.2-2.4-.3-.4-.1-.8.5-.8s1.5-1.9 2.2-4.2c1.6-6.3 15.6-54.3 17.9-61.9 1.2-3.7 2.3-7.5 2.5-8.5.2-1.1 2-7.3 4-13.9 2-6.6 3.7-12.7 3.9-13.5.2-.8.6-2.2.9-3 .3-.8 2.2-7.1 4.1-14 2-6.9 4.1-14.1 4.7-16 .6-1.9 1.2-4.2 1.3-5 .2-.8.6-2.2.9-3 .4-.8 2-6.2 3.6-12s3.6-12.6 4.4-15.3c.9-2.6 1.5-4.9 1.5-5 .1-.1.3-.9.6-1.7 3-9.3 4.7-17.2 4.1-18.7-.5-1-.8-2.3-.7-2.8.1-.6-6.7-3.9-15.1-7.4-8.4-3.6-18.5-7.9-22.5-9.8-4.1-1.8-7.5-3.3-7.7-3.3-.3 0-2.8-1.1-5.7-2.4-2.9-1.3-9.8-4.3-15.3-6.6s-11.3-4.8-13-5.5c-1.6-.8-10-4.3-18.5-8s-17.9-7.8-20.8-9.1c-2.9-1.3-5.4-2.4-5.6-2.4-.2 0-2.5-1-5.2-2.2-2.7-1.2-5.1-2.3-5.4-2.3-.3-.1-2.1-.9-4-1.8-9.5-4.2-12.9-5.5-13.4-5-.3.4-.6.1-.6-.6s-.4-1-.9-.7c-.5.4-1.1.3-1.3-.2-.1-.4-6.4-3.3-13.8-6.5-12-5-42.3-18-52.2-22.4l-3.7-1.7.5-5.9c.2-3.3.7-6.3.9-6.7.2-.3.6-4.2 1-8.6.3-4.3.7-8.6 1-9.4.2-.8.7-4.4 1-8 .2-3.6.7-7.4.9-8.5.7-3.8 1.7-12.1 2.1-17.6.2-3 .7-6.5 1-7.9.3-1.4.7-5.4 1-9 .3-3.6.7-7.6 1-9 .5-2.5.8-4.9 2-17 .4-3.6.9-7.3 1-8.2.2-.9.7-4.9 1-9 .4-4 .8-7.5 1-7.8.2-.3.6-3.9 1-8 .3-4.1.8-8.2 1-9 .2-.8.7-4.9 1-9 .4-4.1.8-7.7 1-8 .1-.3.6-3.9 1-8 1-9.9 1.1-11 2.4-21.5.6-5 1.4-11 1.6-13.5.8-6.5 1.3-10.9 2-16 .3-2.5.8-6.8 1-9.7.2-2.9.6-5.7 1-6.3.3-.5-.1-1.3-.9-1.6-.9-.3-1.6-1.2-1.6-1.9 0-1.4-1.9-2.2-6.3-3-1.2-.3-4.4-1.1-7.1-1.9-2.7-.8-5.3-1.3-5.8-1-.5.3-1.4.2-2.1-.3-1.2-.9-10.8-3.5-13.7-3.8-.9 0-2-.4-2.5-.7-.6-.3-2.8-.9-5-1.3-2.2-.5-4.2-.9-4.5-.9-.3-.1-2.5-.7-5-1.3-9.3-2.4-20.6-5.2-23-5.7-1.4-.3-6.3-1.5-11-2.7-4.7-1.1-9.3-2.2-10.3-2.4-1-.2-2.7-.7-3.7-1-1-.3-2.7-.8-3.8-1-1-.2-3.6-.8-5.8-1.4-6.3-1.7-33.7-8.4-35.9-8.7-1.1-.2-12.8-3-25.9-6.4-23.5-5.9-28.1-6.6-34.1-5z"/></svg>